<mxfile host="app.diagrams.net" modified="2021-04-08T02:49:06.016Z" agent="5.0 (Macintosh; Intel Mac OS X 10_15_1) AppleWebKit/537.36 (KHTML, like Gecko) Chrome/89.0.4389.114 Safari/537.36" etag="kZqOu_yOcviJ-hU3OMvk" version="14.5.8" type="github">
  <diagram id="R2lEEEUBdFMjLlhIrx00" name="Page-1">
    <mxGraphModel dx="1411" dy="653" grid="1" gridSize="10" guides="1" tooltips="1" connect="1" arrows="1" fold="1" page="1" pageScale="1" pageWidth="850" pageHeight="1100" math="0" shadow="0" extFonts="Permanent Marker^https://fonts.googleapis.com/css?family=Permanent+Marker">
      <root>
        <mxCell id="0" />
        <mxCell id="1" parent="0" />
        <mxCell id="Juyp6doiT1WNdnk2VAP0-44" value="Pedido" style="rounded=0;whiteSpace=wrap;html=1;shadow=0;" vertex="1" parent="1">
          <mxGeometry x="220" y="670" width="120" height="60" as="geometry" />
        </mxCell>
        <mxCell id="Juyp6doiT1WNdnk2VAP0-3" value="Contratante" style="rounded=0;whiteSpace=wrap;html=1;" vertex="1" parent="1">
          <mxGeometry x="220" y="450" width="120" height="60" as="geometry" />
        </mxCell>
        <mxCell id="Juyp6doiT1WNdnk2VAP0-4" value="Anunciante" style="rounded=0;whiteSpace=wrap;html=1;" vertex="1" parent="1">
          <mxGeometry x="480" y="570" width="120" height="60" as="geometry" />
        </mxCell>
        <mxCell id="Juyp6doiT1WNdnk2VAP0-5" value="AnÃºncio" style="rounded=0;whiteSpace=wrap;html=1;" vertex="1" parent="1">
          <mxGeometry x="475" y="780" width="120" height="60" as="geometry" />
        </mxCell>
        <mxCell id="Juyp6doiT1WNdnk2VAP0-8" value="Publicar" style="rhombus;whiteSpace=wrap;html=1;" vertex="1" parent="1">
          <mxGeometry x="485" y="680" width="110" height="60" as="geometry" />
        </mxCell>
        <mxCell id="Juyp6doiT1WNdnk2VAP0-13" value="" style="endArrow=none;html=1;entryX=0.5;entryY=1;entryDx=0;entryDy=0;" edge="1" parent="1" source="Juyp6doiT1WNdnk2VAP0-8" target="Juyp6doiT1WNdnk2VAP0-4">
          <mxGeometry width="50" height="50" relative="1" as="geometry">
            <mxPoint x="532" y="670" as="sourcePoint" />
            <mxPoint x="702" y="560" as="targetPoint" />
          </mxGeometry>
        </mxCell>
        <mxCell id="Juyp6doiT1WNdnk2VAP0-25" value="N" style="text;html=1;align=center;verticalAlign=middle;resizable=0;points=[];autosize=1;strokeColor=none;" vertex="1" parent="1">
          <mxGeometry x="260" y="580" width="20" height="20" as="geometry" />
        </mxCell>
        <mxCell id="Juyp6doiT1WNdnk2VAP0-31" value="Contactar" style="rhombus;whiteSpace=wrap;html=1;" vertex="1" parent="1">
          <mxGeometry x="485" y="450" width="110" height="60" as="geometry" />
        </mxCell>
        <mxCell id="Juyp6doiT1WNdnk2VAP0-32" value="" style="endArrow=none;html=1;exitX=0.5;exitY=1;exitDx=0;exitDy=0;entryX=0.5;entryY=0;entryDx=0;entryDy=0;" edge="1" parent="1" source="Juyp6doiT1WNdnk2VAP0-31" target="Juyp6doiT1WNdnk2VAP0-4">
          <mxGeometry width="50" height="50" relative="1" as="geometry">
            <mxPoint x="430" y="620" as="sourcePoint" />
            <mxPoint x="638" y="480" as="targetPoint" />
          </mxGeometry>
        </mxCell>
        <mxCell id="Juyp6doiT1WNdnk2VAP0-33" value="" style="endArrow=none;html=1;exitX=1;exitY=0.5;exitDx=0;exitDy=0;entryX=0;entryY=0.5;entryDx=0;entryDy=0;" edge="1" parent="1" target="Juyp6doiT1WNdnk2VAP0-31">
          <mxGeometry width="50" height="50" relative="1" as="geometry">
            <mxPoint x="340" y="479.5799999999999" as="sourcePoint" />
            <mxPoint x="485" y="480" as="targetPoint" />
          </mxGeometry>
        </mxCell>
        <mxCell id="Juyp6doiT1WNdnk2VAP0-34" value="N" style="text;html=1;align=center;verticalAlign=middle;resizable=0;points=[];autosize=1;strokeColor=none;" vertex="1" parent="1">
          <mxGeometry x="340" y="460" width="20" height="20" as="geometry" />
        </mxCell>
        <mxCell id="Juyp6doiT1WNdnk2VAP0-35" value="N" style="text;html=1;align=center;verticalAlign=middle;resizable=0;points=[];autosize=1;strokeColor=none;" vertex="1" parent="1">
          <mxGeometry x="540" y="550" width="20" height="20" as="geometry" />
        </mxCell>
        <mxCell id="Juyp6doiT1WNdnk2VAP0-45" value="Contratar" style="rhombus;whiteSpace=wrap;html=1;" vertex="1" parent="1">
          <mxGeometry x="225" y="560" width="110" height="60" as="geometry" />
        </mxCell>
        <mxCell id="Juyp6doiT1WNdnk2VAP0-46" value="Agrupar" style="rhombus;whiteSpace=wrap;html=1;" vertex="1" parent="1">
          <mxGeometry x="224" y="780" width="110" height="60" as="geometry" />
        </mxCell>
        <mxCell id="Juyp6doiT1WNdnk2VAP0-47" value="" style="endArrow=none;html=1;entryX=0.5;entryY=0;entryDx=0;entryDy=0;" edge="1" parent="1" target="Juyp6doiT1WNdnk2VAP0-45">
          <mxGeometry width="50" height="50" relative="1" as="geometry">
            <mxPoint x="280" y="510" as="sourcePoint" />
            <mxPoint x="365" y="510.42" as="targetPoint" />
          </mxGeometry>
        </mxCell>
        <mxCell id="Juyp6doiT1WNdnk2VAP0-49" value="" style="endArrow=none;html=1;entryX=0.5;entryY=0;entryDx=0;entryDy=0;" edge="1" parent="1">
          <mxGeometry width="50" height="50" relative="1" as="geometry">
            <mxPoint x="280" y="620" as="sourcePoint" />
            <mxPoint x="280" y="670" as="targetPoint" />
          </mxGeometry>
        </mxCell>
        <mxCell id="Juyp6doiT1WNdnk2VAP0-50" value="" style="endArrow=none;html=1;entryX=0.5;entryY=0;entryDx=0;entryDy=0;" edge="1" parent="1">
          <mxGeometry width="50" height="50" relative="1" as="geometry">
            <mxPoint x="279.16999999999996" y="730" as="sourcePoint" />
            <mxPoint x="279.16999999999996" y="780" as="targetPoint" />
          </mxGeometry>
        </mxCell>
        <mxCell id="Juyp6doiT1WNdnk2VAP0-52" value="" style="endArrow=none;html=1;entryX=0;entryY=0.5;entryDx=0;entryDy=0;" edge="1" parent="1" source="Juyp6doiT1WNdnk2VAP0-46" target="Juyp6doiT1WNdnk2VAP0-5">
          <mxGeometry width="50" height="50" relative="1" as="geometry">
            <mxPoint x="520" y="760" as="sourcePoint" />
            <mxPoint x="570" y="710" as="targetPoint" />
          </mxGeometry>
        </mxCell>
        <mxCell id="Juyp6doiT1WNdnk2VAP0-53" value="" style="endArrow=none;html=1;entryX=0.5;entryY=1;entryDx=0;entryDy=0;" edge="1" parent="1" target="Juyp6doiT1WNdnk2VAP0-8">
          <mxGeometry width="50" height="50" relative="1" as="geometry">
            <mxPoint x="540" y="780" as="sourcePoint" />
            <mxPoint x="570" y="600" as="targetPoint" />
          </mxGeometry>
        </mxCell>
        <mxCell id="Juyp6doiT1WNdnk2VAP0-54" value="N" style="text;html=1;align=center;verticalAlign=middle;resizable=0;points=[];autosize=1;strokeColor=none;" vertex="1" parent="1">
          <mxGeometry x="450" y="810" width="20" height="20" as="geometry" />
        </mxCell>
        <mxCell id="Juyp6doiT1WNdnk2VAP0-55" value="1" style="text;html=1;align=center;verticalAlign=middle;resizable=0;points=[];autosize=1;strokeColor=none;" vertex="1" parent="1">
          <mxGeometry x="260" y="510" width="20" height="20" as="geometry" />
        </mxCell>
        <mxCell id="Juyp6doiT1WNdnk2VAP0-56" value="N" style="text;html=1;align=center;verticalAlign=middle;resizable=0;points=[];autosize=1;strokeColor=none;" vertex="1" parent="1">
          <mxGeometry x="260" y="730" width="20" height="20" as="geometry" />
        </mxCell>
        <mxCell id="Juyp6doiT1WNdnk2VAP0-57" value="N" style="text;html=1;align=center;verticalAlign=middle;resizable=0;points=[];autosize=1;strokeColor=none;" vertex="1" parent="1">
          <mxGeometry x="260" y="650" width="20" height="20" as="geometry" />
        </mxCell>
        <mxCell id="Juyp6doiT1WNdnk2VAP0-58" value="N" style="text;html=1;align=center;verticalAlign=middle;resizable=0;points=[];autosize=1;strokeColor=none;" vertex="1" parent="1">
          <mxGeometry x="540" y="760" width="20" height="20" as="geometry" />
        </mxCell>
        <mxCell id="Juyp6doiT1WNdnk2VAP0-59" value="1" style="text;html=1;align=center;verticalAlign=middle;resizable=0;points=[];autosize=1;strokeColor=none;" vertex="1" parent="1">
          <mxGeometry x="540" y="630" width="20" height="20" as="geometry" />
        </mxCell>
        <mxCell id="Juyp6doiT1WNdnk2VAP0-85" value="" style="endArrow=none;html=1;entryX=0.031;entryY=-0.008;entryDx=0;entryDy=0;entryPerimeter=0;exitX=0.006;exitY=0.665;exitDx=0;exitDy=0;exitPerimeter=0;" edge="1" parent="1" source="Juyp6doiT1WNdnk2VAP0-87">
          <mxGeometry width="50" height="50" relative="1" as="geometry">
            <mxPoint x="224.28" y="379.48" as="sourcePoint" />
            <mxPoint x="223.99999999999997" y="450" as="targetPoint" />
          </mxGeometry>
        </mxCell>
        <mxCell id="Juyp6doiT1WNdnk2VAP0-86" value="" style="endArrow=none;html=1;entryX=0.117;entryY=0;entryDx=0;entryDy=0;entryPerimeter=0;" edge="1" parent="1">
          <mxGeometry width="50" height="50" relative="1" as="geometry">
            <mxPoint x="241" y="397" as="sourcePoint" />
            <mxPoint x="241.04000000000002" y="449" as="targetPoint" />
          </mxGeometry>
        </mxCell>
        <mxCell id="Juyp6doiT1WNdnk2VAP0-87" value="&lt;font style=&quot;font-size: 10px&quot;&gt;CPF&lt;/font&gt;" style="text;html=1;align=center;verticalAlign=middle;resizable=0;points=[];autosize=1;strokeColor=none;" vertex="1" parent="1">
          <mxGeometry x="224" y="357" width="40" height="20" as="geometry" />
        </mxCell>
        <mxCell id="Juyp6doiT1WNdnk2VAP0-88" value="" style="ellipse;whiteSpace=wrap;html=1;aspect=fixed;shadow=0;fillColor=#000000;" vertex="1" parent="1">
          <mxGeometry x="220" y="363" width="8" height="8" as="geometry" />
        </mxCell>
        <mxCell id="Juyp6doiT1WNdnk2VAP0-89" value="" style="ellipse;whiteSpace=wrap;html=1;aspect=fixed;shadow=0;" vertex="1" parent="1">
          <mxGeometry x="237" y="389" width="8" height="8" as="geometry" />
        </mxCell>
        <mxCell id="Juyp6doiT1WNdnk2VAP0-90" value="&lt;font style=&quot;font-size: 10px&quot;&gt;E-mail&lt;/font&gt;" style="text;html=1;align=center;verticalAlign=middle;resizable=0;points=[];autosize=1;strokeColor=none;" vertex="1" parent="1">
          <mxGeometry x="244" y="381" width="40" height="20" as="geometry" />
        </mxCell>
        <mxCell id="Juyp6doiT1WNdnk2VAP0-91" value="" style="endArrow=none;html=1;entryX=0.2;entryY=0;entryDx=0;entryDy=0;entryPerimeter=0;" edge="1" parent="1">
          <mxGeometry width="50" height="50" relative="1" as="geometry">
            <mxPoint x="250.99999999999997" y="409" as="sourcePoint" />
            <mxPoint x="250.99999999999997" y="449" as="targetPoint" />
          </mxGeometry>
        </mxCell>
        <mxCell id="Juyp6doiT1WNdnk2VAP0-92" value="" style="ellipse;whiteSpace=wrap;html=1;aspect=fixed;shadow=0;" vertex="1" parent="1">
          <mxGeometry x="246.99999999999997" y="402" width="8" height="8" as="geometry" />
        </mxCell>
        <mxCell id="Juyp6doiT1WNdnk2VAP0-93" value="&lt;font style=&quot;font-size: 10px&quot;&gt;Senha&lt;/font&gt;" style="text;html=1;align=center;verticalAlign=middle;resizable=0;points=[];autosize=1;strokeColor=none;" vertex="1" parent="1">
          <mxGeometry x="254" y="395" width="40" height="20" as="geometry" />
        </mxCell>
        <mxCell id="Juyp6doiT1WNdnk2VAP0-102" value="" style="endArrow=none;html=1;entryX=0.267;entryY=0;entryDx=0;entryDy=0;entryPerimeter=0;" edge="1" parent="1">
          <mxGeometry width="50" height="50" relative="1" as="geometry">
            <mxPoint x="259" y="419" as="sourcePoint" />
            <mxPoint x="259.0400000000001" y="449" as="targetPoint" />
          </mxGeometry>
        </mxCell>
        <mxCell id="Juyp6doiT1WNdnk2VAP0-103" value="" style="ellipse;whiteSpace=wrap;html=1;aspect=fixed;shadow=0;" vertex="1" parent="1">
          <mxGeometry x="254.99999999999997" y="415" width="8" height="8" as="geometry" />
        </mxCell>
        <mxCell id="Juyp6doiT1WNdnk2VAP0-104" value="&lt;font style=&quot;font-size: 10px&quot;&gt;Telefone&lt;/font&gt;" style="text;html=1;align=center;verticalAlign=middle;resizable=0;points=[];autosize=1;strokeColor=none;" vertex="1" parent="1">
          <mxGeometry x="259" y="407" width="50" height="20" as="geometry" />
        </mxCell>
        <mxCell id="Juyp6doiT1WNdnk2VAP0-105" value="" style="endArrow=none;html=1;" edge="1" parent="1">
          <mxGeometry width="50" height="50" relative="1" as="geometry">
            <mxPoint x="267" y="429" as="sourcePoint" />
            <mxPoint x="267" y="449" as="targetPoint" />
          </mxGeometry>
        </mxCell>
        <mxCell id="Juyp6doiT1WNdnk2VAP0-106" value="" style="ellipse;whiteSpace=wrap;html=1;aspect=fixed;shadow=0;" vertex="1" parent="1">
          <mxGeometry x="263" y="425" width="8" height="8" as="geometry" />
        </mxCell>
        <mxCell id="Juyp6doiT1WNdnk2VAP0-107" value="&lt;font style=&quot;font-size: 10px&quot;&gt;Idade&lt;/font&gt;" style="text;html=1;align=center;verticalAlign=middle;resizable=0;points=[];autosize=1;strokeColor=none;" vertex="1" parent="1">
          <mxGeometry x="269" y="418" width="40" height="20" as="geometry" />
        </mxCell>
        <mxCell id="Juyp6doiT1WNdnk2VAP0-108" value="" style="endArrow=none;html=1;entryX=0.054;entryY=0.953;entryDx=0;entryDy=0;entryPerimeter=0;" edge="1" parent="1" target="Juyp6doiT1WNdnk2VAP0-110">
          <mxGeometry width="50" height="50" relative="1" as="geometry">
            <mxPoint x="275" y="441" as="sourcePoint" />
            <mxPoint x="275.03999999999996" y="471" as="targetPoint" />
            <Array as="points" />
          </mxGeometry>
        </mxCell>
        <mxCell id="Juyp6doiT1WNdnk2VAP0-109" value="" style="ellipse;whiteSpace=wrap;html=1;aspect=fixed;shadow=0;" vertex="1" parent="1">
          <mxGeometry x="271" y="437" width="8" height="8" as="geometry" />
        </mxCell>
        <mxCell id="Juyp6doiT1WNdnk2VAP0-110" value="&lt;font style=&quot;font-size: 10px&quot;&gt;EndereÃ§o&lt;/font&gt;" style="text;html=1;align=center;verticalAlign=middle;resizable=0;points=[];autosize=1;strokeColor=none;" vertex="1" parent="1">
          <mxGeometry x="272" y="430" width="60" height="20" as="geometry" />
        </mxCell>
        <mxCell id="Juyp6doiT1WNdnk2VAP0-111" value="" style="endArrow=none;html=1;entryX=0.117;entryY=0;entryDx=0;entryDy=0;entryPerimeter=0;" edge="1" parent="1" source="Juyp6doiT1WNdnk2VAP0-112">
          <mxGeometry width="50" height="50" relative="1" as="geometry">
            <mxPoint x="232.00000000000003" y="399" as="sourcePoint" />
            <mxPoint x="232.04000000000005" y="451" as="targetPoint" />
          </mxGeometry>
        </mxCell>
        <mxCell id="Juyp6doiT1WNdnk2VAP0-112" value="" style="ellipse;whiteSpace=wrap;html=1;aspect=fixed;shadow=0;" vertex="1" parent="1">
          <mxGeometry x="227.99999999999997" y="377" width="8" height="8" as="geometry" />
        </mxCell>
        <mxCell id="Juyp6doiT1WNdnk2VAP0-114" value="&lt;font style=&quot;font-size: 10px&quot;&gt;Nome&lt;/font&gt;" style="text;html=1;align=center;verticalAlign=middle;resizable=0;points=[];autosize=1;strokeColor=none;" vertex="1" parent="1">
          <mxGeometry x="231.99999999999997" y="369" width="40" height="20" as="geometry" />
        </mxCell>
        <mxCell id="Juyp6doiT1WNdnk2VAP0-115" value="" style="endArrow=none;html=1;entryX=0.449;entryY=0.05;entryDx=0;entryDy=0;entryPerimeter=0;exitX=0.471;exitY=0.868;exitDx=0;exitDy=0;exitPerimeter=0;" edge="1" parent="1" source="Juyp6doiT1WNdnk2VAP0-118" target="Juyp6doiT1WNdnk2VAP0-31">
          <mxGeometry width="50" height="50" relative="1" as="geometry">
            <mxPoint x="534.28" y="424.48" as="sourcePoint" />
            <mxPoint x="534" y="450" as="targetPoint" />
          </mxGeometry>
        </mxCell>
        <mxCell id="Juyp6doiT1WNdnk2VAP0-116" value="" style="endArrow=none;html=1;entryX=0.6;entryY=0.105;entryDx=0;entryDy=0;entryPerimeter=0;" edge="1" parent="1" target="Juyp6doiT1WNdnk2VAP0-31">
          <mxGeometry width="50" height="50" relative="1" as="geometry">
            <mxPoint x="551" y="442" as="sourcePoint" />
            <mxPoint x="551" y="460" as="targetPoint" />
          </mxGeometry>
        </mxCell>
        <mxCell id="Juyp6doiT1WNdnk2VAP0-117" value="&lt;font style=&quot;font-size: 10px&quot;&gt;Anunciante&lt;/font&gt;" style="text;html=1;align=center;verticalAlign=middle;resizable=0;points=[];autosize=1;strokeColor=none;" vertex="1" parent="1">
          <mxGeometry x="531" y="400" width="70" height="20" as="geometry" />
        </mxCell>
        <mxCell id="Juyp6doiT1WNdnk2VAP0-118" value="" style="ellipse;whiteSpace=wrap;html=1;aspect=fixed;shadow=0;fillColor=#FFFFFF;" vertex="1" parent="1">
          <mxGeometry x="531" y="408" width="8" height="8" as="geometry" />
        </mxCell>
        <mxCell id="Juyp6doiT1WNdnk2VAP0-119" value="" style="ellipse;whiteSpace=wrap;html=1;aspect=fixed;shadow=0;" vertex="1" parent="1">
          <mxGeometry x="547" y="434" width="8" height="8" as="geometry" />
        </mxCell>
        <mxCell id="Juyp6doiT1WNdnk2VAP0-120" value="&lt;font style=&quot;font-size: 10px&quot;&gt;Mensagens&lt;/font&gt;" style="text;html=1;align=center;verticalAlign=middle;resizable=0;points=[];autosize=1;strokeColor=none;" vertex="1" parent="1">
          <mxGeometry x="548" y="427" width="70" height="20" as="geometry" />
        </mxCell>
        <mxCell id="Juyp6doiT1WNdnk2VAP0-133" value="" style="endArrow=none;html=1;entryX=0.516;entryY=0.018;entryDx=0;entryDy=0;entryPerimeter=0;" edge="1" parent="1" source="Juyp6doiT1WNdnk2VAP0-134" target="Juyp6doiT1WNdnk2VAP0-31">
          <mxGeometry width="50" height="50" relative="1" as="geometry">
            <mxPoint x="542" y="444" as="sourcePoint" />
            <mxPoint x="542" y="450" as="targetPoint" />
          </mxGeometry>
        </mxCell>
        <mxCell id="Juyp6doiT1WNdnk2VAP0-134" value="" style="ellipse;whiteSpace=wrap;html=1;aspect=fixed;shadow=0;" vertex="1" parent="1">
          <mxGeometry x="538" y="420" width="8" height="8" as="geometry" />
        </mxCell>
        <mxCell id="Juyp6doiT1WNdnk2VAP0-135" value="&lt;font style=&quot;font-size: 10px&quot;&gt;Contratante&lt;/font&gt;" style="text;html=1;align=center;verticalAlign=middle;resizable=0;points=[];autosize=1;strokeColor=none;" vertex="1" parent="1">
          <mxGeometry x="540" y="413" width="70" height="20" as="geometry" />
        </mxCell>
        <mxCell id="Juyp6doiT1WNdnk2VAP0-138" value="" style="endArrow=none;html=1;exitX=0.471;exitY=0.868;exitDx=0;exitDy=0;exitPerimeter=0;entryX=0.809;entryY=0.32;entryDx=0;entryDy=0;entryPerimeter=0;" edge="1" parent="1" source="Juyp6doiT1WNdnk2VAP0-141" target="Juyp6doiT1WNdnk2VAP0-8">
          <mxGeometry width="50" height="50" relative="1" as="geometry">
            <mxPoint x="573.28" y="684.48" as="sourcePoint" />
            <mxPoint x="573" y="700" as="targetPoint" />
          </mxGeometry>
        </mxCell>
        <mxCell id="Juyp6doiT1WNdnk2VAP0-139" value="" style="endArrow=none;html=1;entryX=0.953;entryY=0.45;entryDx=0;entryDy=0;entryPerimeter=0;" edge="1" parent="1" target="Juyp6doiT1WNdnk2VAP0-8">
          <mxGeometry width="50" height="50" relative="1" as="geometry">
            <mxPoint x="590" y="702" as="sourcePoint" />
            <mxPoint x="590" y="710" as="targetPoint" />
          </mxGeometry>
        </mxCell>
        <mxCell id="Juyp6doiT1WNdnk2VAP0-140" value="&lt;font style=&quot;font-size: 10px&quot;&gt;Anunciante&lt;/font&gt;" style="text;html=1;align=center;verticalAlign=middle;resizable=0;points=[];autosize=1;strokeColor=none;" vertex="1" parent="1">
          <mxGeometry x="570" y="660" width="70" height="20" as="geometry" />
        </mxCell>
        <mxCell id="Juyp6doiT1WNdnk2VAP0-141" value="" style="ellipse;whiteSpace=wrap;html=1;aspect=fixed;shadow=0;fillColor=#FFFFFF;" vertex="1" parent="1">
          <mxGeometry x="570" y="668" width="8" height="8" as="geometry" />
        </mxCell>
        <mxCell id="Juyp6doiT1WNdnk2VAP0-142" value="" style="ellipse;whiteSpace=wrap;html=1;aspect=fixed;shadow=0;" vertex="1" parent="1">
          <mxGeometry x="586" y="694" width="8" height="8" as="geometry" />
        </mxCell>
        <mxCell id="Juyp6doiT1WNdnk2VAP0-143" value="&lt;font style=&quot;font-size: 10px&quot;&gt;Estado (status)&lt;/font&gt;" style="text;html=1;align=center;verticalAlign=middle;resizable=0;points=[];autosize=1;strokeColor=none;" vertex="1" parent="1">
          <mxGeometry x="589" y="687" width="80" height="20" as="geometry" />
        </mxCell>
        <mxCell id="Juyp6doiT1WNdnk2VAP0-144" value="" style="endArrow=none;html=1;entryX=0.871;entryY=0.369;entryDx=0;entryDy=0;entryPerimeter=0;" edge="1" parent="1" source="Juyp6doiT1WNdnk2VAP0-145" target="Juyp6doiT1WNdnk2VAP0-8">
          <mxGeometry width="50" height="50" relative="1" as="geometry">
            <mxPoint x="581" y="704" as="sourcePoint" />
            <mxPoint x="581" y="700" as="targetPoint" />
          </mxGeometry>
        </mxCell>
        <mxCell id="Juyp6doiT1WNdnk2VAP0-145" value="" style="ellipse;whiteSpace=wrap;html=1;aspect=fixed;shadow=0;" vertex="1" parent="1">
          <mxGeometry x="577" y="680" width="8" height="8" as="geometry" />
        </mxCell>
        <mxCell id="Juyp6doiT1WNdnk2VAP0-146" value="&lt;font style=&quot;font-size: 10px&quot;&gt;Data&lt;/font&gt;" style="text;html=1;align=center;verticalAlign=middle;resizable=0;points=[];autosize=1;strokeColor=none;" vertex="1" parent="1">
          <mxGeometry x="578" y="672" width="40" height="20" as="geometry" />
        </mxCell>
        <mxCell id="Juyp6doiT1WNdnk2VAP0-147" value="" style="endArrow=none;html=1;exitX=0.471;exitY=0.868;exitDx=0;exitDy=0;exitPerimeter=0;entryX=0.73;entryY=0.236;entryDx=0;entryDy=0;entryPerimeter=0;" edge="1" parent="1" source="Juyp6doiT1WNdnk2VAP0-150" target="Juyp6doiT1WNdnk2VAP0-45">
          <mxGeometry width="50" height="50" relative="1" as="geometry">
            <mxPoint x="304.78" y="559.48" as="sourcePoint" />
            <mxPoint x="305" y="575" as="targetPoint" />
          </mxGeometry>
        </mxCell>
        <mxCell id="Juyp6doiT1WNdnk2VAP0-149" value="&lt;font style=&quot;font-size: 10px&quot;&gt;NÃºmero de pedido&lt;/font&gt;" style="text;html=1;align=center;verticalAlign=middle;resizable=0;points=[];autosize=1;strokeColor=none;" vertex="1" parent="1">
          <mxGeometry x="301.5" y="535" width="100" height="20" as="geometry" />
        </mxCell>
        <mxCell id="Juyp6doiT1WNdnk2VAP0-150" value="" style="ellipse;whiteSpace=wrap;html=1;aspect=fixed;shadow=0;fillColor=#FFFFFF;" vertex="1" parent="1">
          <mxGeometry x="301.5" y="543" width="8" height="8" as="geometry" />
        </mxCell>
        <mxCell id="Juyp6doiT1WNdnk2VAP0-153" value="" style="endArrow=none;html=1;entryX=0.797;entryY=0.295;entryDx=0;entryDy=0;entryPerimeter=0;" edge="1" parent="1" source="Juyp6doiT1WNdnk2VAP0-154" target="Juyp6doiT1WNdnk2VAP0-45">
          <mxGeometry width="50" height="50" relative="1" as="geometry">
            <mxPoint x="312.5" y="579" as="sourcePoint" />
            <mxPoint x="312" y="577" as="targetPoint" />
          </mxGeometry>
        </mxCell>
        <mxCell id="Juyp6doiT1WNdnk2VAP0-154" value="" style="ellipse;whiteSpace=wrap;html=1;aspect=fixed;shadow=0;" vertex="1" parent="1">
          <mxGeometry x="308.5" y="555" width="8" height="8" as="geometry" />
        </mxCell>
        <mxCell id="Juyp6doiT1WNdnk2VAP0-155" value="&lt;font style=&quot;font-size: 10px&quot;&gt;CPF&lt;/font&gt;" style="text;html=1;align=center;verticalAlign=middle;resizable=0;points=[];autosize=1;strokeColor=none;" vertex="1" parent="1">
          <mxGeometry x="309.5" y="547" width="40" height="20" as="geometry" />
        </mxCell>
        <mxCell id="Juyp6doiT1WNdnk2VAP0-156" value="" style="endArrow=none;html=1;exitX=0.471;exitY=0.868;exitDx=0;exitDy=0;exitPerimeter=0;entryX=0.73;entryY=0.236;entryDx=0;entryDy=0;entryPerimeter=0;" edge="1" parent="1" source="Juyp6doiT1WNdnk2VAP0-158">
          <mxGeometry width="50" height="50" relative="1" as="geometry">
            <mxPoint x="294.28" y="774.48" as="sourcePoint" />
            <mxPoint x="294.80000000000007" y="789.16" as="targetPoint" />
          </mxGeometry>
        </mxCell>
        <mxCell id="Juyp6doiT1WNdnk2VAP0-157" value="&lt;font style=&quot;font-size: 10px&quot;&gt;NÃºmero de pedido&lt;/font&gt;" style="text;html=1;align=center;verticalAlign=middle;resizable=0;points=[];autosize=1;strokeColor=none;" vertex="1" parent="1">
          <mxGeometry x="295" y="750" width="100" height="20" as="geometry" />
        </mxCell>
        <mxCell id="Juyp6doiT1WNdnk2VAP0-158" value="" style="ellipse;whiteSpace=wrap;html=1;aspect=fixed;shadow=0;fillColor=#FFFFFF;" vertex="1" parent="1">
          <mxGeometry x="291" y="758" width="8" height="8" as="geometry" />
        </mxCell>
        <mxCell id="Juyp6doiT1WNdnk2VAP0-159" value="" style="endArrow=none;html=1;entryX=0.797;entryY=0.295;entryDx=0;entryDy=0;entryPerimeter=0;" edge="1" parent="1" source="Juyp6doiT1WNdnk2VAP0-160">
          <mxGeometry width="50" height="50" relative="1" as="geometry">
            <mxPoint x="302" y="794" as="sourcePoint" />
            <mxPoint x="302.1700000000001" y="792.6999999999999" as="targetPoint" />
          </mxGeometry>
        </mxCell>
        <mxCell id="Juyp6doiT1WNdnk2VAP0-160" value="" style="ellipse;whiteSpace=wrap;html=1;aspect=fixed;shadow=0;" vertex="1" parent="1">
          <mxGeometry x="298" y="770" width="8" height="8" as="geometry" />
        </mxCell>
        <mxCell id="Juyp6doiT1WNdnk2VAP0-161" value="&lt;font style=&quot;font-size: 10px&quot;&gt;AnÃºncios&lt;/font&gt;" style="text;html=1;align=center;verticalAlign=middle;resizable=0;points=[];autosize=1;strokeColor=none;" vertex="1" parent="1">
          <mxGeometry x="301.5" y="762" width="60" height="20" as="geometry" />
        </mxCell>
        <mxCell id="Juyp6doiT1WNdnk2VAP0-168" value="" style="endArrow=none;html=1;exitX=0;exitY=0.75;exitDx=0;exitDy=0;" edge="1" parent="1">
          <mxGeometry width="50" height="50" relative="1" as="geometry">
            <mxPoint x="220" y="723" as="sourcePoint" />
            <mxPoint x="190" y="723" as="targetPoint" />
          </mxGeometry>
        </mxCell>
        <mxCell id="Juyp6doiT1WNdnk2VAP0-169" value="" style="ellipse;whiteSpace=wrap;html=1;aspect=fixed;shadow=0;fillColor=#000000;" vertex="1" parent="1">
          <mxGeometry x="184" y="719" width="8" height="8" as="geometry" />
        </mxCell>
        <mxCell id="Juyp6doiT1WNdnk2VAP0-170" value="&lt;font style=&quot;font-size: 10px&quot;&gt;NÃºmero&lt;/font&gt;" style="text;html=1;align=center;verticalAlign=middle;resizable=0;points=[];autosize=1;strokeColor=none;" vertex="1" parent="1">
          <mxGeometry x="136" y="711" width="50" height="20" as="geometry" />
        </mxCell>
        <mxCell id="Juyp6doiT1WNdnk2VAP0-184" value="" style="endArrow=none;html=1;exitX=0;exitY=0.55;exitDx=0;exitDy=0;exitPerimeter=0;" edge="1" parent="1">
          <mxGeometry width="50" height="50" relative="1" as="geometry">
            <mxPoint x="220" y="710" as="sourcePoint" />
            <mxPoint x="176" y="710" as="targetPoint" />
          </mxGeometry>
        </mxCell>
        <mxCell id="Juyp6doiT1WNdnk2VAP0-185" value="" style="ellipse;whiteSpace=wrap;html=1;aspect=fixed;shadow=0;" vertex="1" parent="1">
          <mxGeometry x="170" y="706" width="8" height="8" as="geometry" />
        </mxCell>
        <mxCell id="Juyp6doiT1WNdnk2VAP0-186" value="&lt;font style=&quot;font-size: 10px&quot;&gt;AnÃºncios&lt;/font&gt;" style="text;html=1;align=center;verticalAlign=middle;resizable=0;points=[];autosize=1;strokeColor=none;" vertex="1" parent="1">
          <mxGeometry x="111.28" y="698" width="60" height="20" as="geometry" />
        </mxCell>
        <mxCell id="Juyp6doiT1WNdnk2VAP0-187" value="" style="endArrow=none;html=1;exitX=0;exitY=0.75;exitDx=0;exitDy=0;" edge="1" parent="1" source="Juyp6doiT1WNdnk2VAP0-188">
          <mxGeometry width="50" height="50" relative="1" as="geometry">
            <mxPoint x="220" y="696" as="sourcePoint" />
            <mxPoint x="160" y="696" as="targetPoint" />
          </mxGeometry>
        </mxCell>
        <mxCell id="Juyp6doiT1WNdnk2VAP0-188" value="" style="ellipse;whiteSpace=wrap;html=1;aspect=fixed;shadow=0;" vertex="1" parent="1">
          <mxGeometry x="157" y="692" width="8" height="8" as="geometry" />
        </mxCell>
        <mxCell id="Juyp6doiT1WNdnk2VAP0-189" value="" style="endArrow=none;html=1;exitX=0;exitY=0.75;exitDx=0;exitDy=0;" edge="1" parent="1" target="Juyp6doiT1WNdnk2VAP0-188">
          <mxGeometry width="50" height="50" relative="1" as="geometry">
            <mxPoint x="220" y="696" as="sourcePoint" />
            <mxPoint x="160" y="696" as="targetPoint" />
          </mxGeometry>
        </mxCell>
        <mxCell id="Juyp6doiT1WNdnk2VAP0-190" value="&lt;font style=&quot;font-size: 10px&quot;&gt;Contratante&lt;/font&gt;" style="text;html=1;align=center;verticalAlign=middle;resizable=0;points=[];autosize=1;strokeColor=none;" vertex="1" parent="1">
          <mxGeometry x="91" y="684" width="70" height="20" as="geometry" />
        </mxCell>
        <mxCell id="Juyp6doiT1WNdnk2VAP0-191" value="" style="endArrow=none;html=1;exitX=0;exitY=0.1;exitDx=0;exitDy=0;exitPerimeter=0;" edge="1" parent="1">
          <mxGeometry width="50" height="50" relative="1" as="geometry">
            <mxPoint x="220" y="684.0000000000001" as="sourcePoint" />
            <mxPoint x="148" y="684" as="targetPoint" />
          </mxGeometry>
        </mxCell>
        <mxCell id="Juyp6doiT1WNdnk2VAP0-192" value="" style="ellipse;whiteSpace=wrap;html=1;aspect=fixed;shadow=0;" vertex="1" parent="1">
          <mxGeometry x="142" y="680" width="8" height="8" as="geometry" />
        </mxCell>
        <mxCell id="Juyp6doiT1WNdnk2VAP0-193" value="&lt;font style=&quot;font-size: 10px&quot;&gt;Data&lt;/font&gt;" style="text;html=1;align=center;verticalAlign=middle;resizable=0;points=[];autosize=1;strokeColor=none;" vertex="1" parent="1">
          <mxGeometry x="106" y="672" width="40" height="20" as="geometry" />
        </mxCell>
        <mxCell id="Juyp6doiT1WNdnk2VAP0-194" value="" style="endArrow=none;html=1;exitX=0;exitY=0.033;exitDx=0;exitDy=0;exitPerimeter=0;" edge="1" parent="1" source="Juyp6doiT1WNdnk2VAP0-44">
          <mxGeometry width="50" height="50" relative="1" as="geometry">
            <mxPoint x="200" y="672.0000000000001" as="sourcePoint" />
            <mxPoint x="128" y="672" as="targetPoint" />
          </mxGeometry>
        </mxCell>
        <mxCell id="Juyp6doiT1WNdnk2VAP0-195" value="" style="ellipse;whiteSpace=wrap;html=1;aspect=fixed;shadow=0;" vertex="1" parent="1">
          <mxGeometry x="122" y="668" width="8" height="8" as="geometry" />
        </mxCell>
        <mxCell id="Juyp6doiT1WNdnk2VAP0-196" value="&lt;font style=&quot;font-size: 10px&quot;&gt;PreÃ§o Total&lt;/font&gt;" style="text;html=1;align=center;verticalAlign=middle;resizable=0;points=[];autosize=1;strokeColor=none;" vertex="1" parent="1">
          <mxGeometry x="57" y="660" width="70" height="20" as="geometry" />
        </mxCell>
        <mxCell id="Juyp6doiT1WNdnk2VAP0-213" value="" style="endArrow=none;html=1;exitX=0.022;exitY=0.994;exitDx=0;exitDy=0;exitPerimeter=0;" edge="1" parent="1">
          <mxGeometry width="50" height="50" relative="1" as="geometry">
            <mxPoint x="488.64" y="840.0000000000001" as="sourcePoint" />
            <mxPoint x="489" y="910.36" as="targetPoint" />
          </mxGeometry>
        </mxCell>
        <mxCell id="Juyp6doiT1WNdnk2VAP0-215" value="&lt;font style=&quot;font-size: 10px&quot;&gt;TÃ­tulo&lt;/font&gt;" style="text;html=1;align=center;verticalAlign=middle;resizable=0;points=[];autosize=1;strokeColor=none;" vertex="1" parent="1">
          <mxGeometry x="494" y="886.36" width="40" height="20" as="geometry" />
        </mxCell>
        <mxCell id="Juyp6doiT1WNdnk2VAP0-216" value="" style="ellipse;whiteSpace=wrap;html=1;aspect=fixed;shadow=0;fillColor=#FFFFFF;" vertex="1" parent="1">
          <mxGeometry x="485" y="906.36" width="8" height="8" as="geometry" />
        </mxCell>
        <mxCell id="Juyp6doiT1WNdnk2VAP0-233" value="&lt;font style=&quot;font-size: 10px&quot;&gt;CÃ³digo do anÃºncio&lt;/font&gt;" style="text;html=1;align=center;verticalAlign=middle;resizable=0;points=[];autosize=1;strokeColor=none;" vertex="1" parent="1">
          <mxGeometry x="478" y="910.72" width="100" height="20" as="geometry" />
        </mxCell>
        <mxCell id="Juyp6doiT1WNdnk2VAP0-234" value="" style="endArrow=none;html=1;exitX=0.022;exitY=0.994;exitDx=0;exitDy=0;exitPerimeter=0;" edge="1" parent="1">
          <mxGeometry width="50" height="50" relative="1" as="geometry">
            <mxPoint x="496" y="840.36" as="sourcePoint" />
            <mxPoint x="496" y="900.36" as="targetPoint" />
          </mxGeometry>
        </mxCell>
        <mxCell id="Juyp6doiT1WNdnk2VAP0-232" value="" style="ellipse;whiteSpace=wrap;html=1;aspect=fixed;shadow=0;" vertex="1" parent="1">
          <mxGeometry x="492" y="894.36" width="8" height="8" as="geometry" />
        </mxCell>
        <mxCell id="Juyp6doiT1WNdnk2VAP0-238" value="" style="endArrow=none;html=1;" edge="1" parent="1">
          <mxGeometry width="50" height="50" relative="1" as="geometry">
            <mxPoint x="504" y="840.36" as="sourcePoint" />
            <mxPoint x="504" y="888.36" as="targetPoint" />
          </mxGeometry>
        </mxCell>
        <mxCell id="Juyp6doiT1WNdnk2VAP0-239" value="" style="ellipse;whiteSpace=wrap;html=1;aspect=fixed;shadow=0;" vertex="1" parent="1">
          <mxGeometry x="500" y="882.36" width="8" height="8" as="geometry" />
        </mxCell>
        <mxCell id="Juyp6doiT1WNdnk2VAP0-240" value="&lt;font style=&quot;font-size: 10px&quot;&gt;DescriÃ§Ã£o&lt;/font&gt;" style="text;html=1;align=center;verticalAlign=middle;resizable=0;points=[];autosize=1;strokeColor=none;" vertex="1" parent="1">
          <mxGeometry x="503" y="875.36" width="60" height="20" as="geometry" />
        </mxCell>
        <mxCell id="Juyp6doiT1WNdnk2VAP0-241" value="" style="endArrow=none;html=1;" edge="1" parent="1">
          <mxGeometry width="50" height="50" relative="1" as="geometry">
            <mxPoint x="514" y="840.36" as="sourcePoint" />
            <mxPoint x="514" y="878.36" as="targetPoint" />
          </mxGeometry>
        </mxCell>
        <mxCell id="Juyp6doiT1WNdnk2VAP0-242" value="" style="ellipse;whiteSpace=wrap;html=1;aspect=fixed;shadow=0;" vertex="1" parent="1">
          <mxGeometry x="510" y="872.36" width="8" height="8" as="geometry" />
        </mxCell>
        <mxCell id="Juyp6doiT1WNdnk2VAP0-243" value="&lt;font style=&quot;font-size: 10px&quot;&gt;PreÃ§o&lt;/font&gt;" style="text;html=1;align=center;verticalAlign=middle;resizable=0;points=[];autosize=1;strokeColor=none;" vertex="1" parent="1">
          <mxGeometry x="514" y="864.36" width="40" height="20" as="geometry" />
        </mxCell>
        <mxCell id="Juyp6doiT1WNdnk2VAP0-244" value="" style="endArrow=none;html=1;" edge="1" parent="1">
          <mxGeometry width="50" height="50" relative="1" as="geometry">
            <mxPoint x="523" y="840.36" as="sourcePoint" />
            <mxPoint x="523" y="866.36" as="targetPoint" />
          </mxGeometry>
        </mxCell>
        <mxCell id="Juyp6doiT1WNdnk2VAP0-245" value="" style="ellipse;whiteSpace=wrap;html=1;aspect=fixed;shadow=0;" vertex="1" parent="1">
          <mxGeometry x="519" y="860.36" width="8" height="8" as="geometry" />
        </mxCell>
        <mxCell id="Juyp6doiT1WNdnk2VAP0-246" value="&lt;font style=&quot;font-size: 10px&quot;&gt;Imagens&lt;/font&gt;" style="text;html=1;align=center;verticalAlign=middle;resizable=0;points=[];autosize=1;strokeColor=none;" vertex="1" parent="1">
          <mxGeometry x="523" y="852.36" width="50" height="20" as="geometry" />
        </mxCell>
        <mxCell id="Juyp6doiT1WNdnk2VAP0-247" value="" style="endArrow=none;html=1;" edge="1" parent="1">
          <mxGeometry width="50" height="50" relative="1" as="geometry">
            <mxPoint x="533" y="840.36" as="sourcePoint" />
            <mxPoint x="533" y="856.36" as="targetPoint" />
          </mxGeometry>
        </mxCell>
        <mxCell id="Juyp6doiT1WNdnk2VAP0-248" value="" style="ellipse;whiteSpace=wrap;html=1;aspect=fixed;shadow=0;" vertex="1" parent="1">
          <mxGeometry x="529" y="850.36" width="8" height="8" as="geometry" />
        </mxCell>
        <mxCell id="Juyp6doiT1WNdnk2VAP0-249" value="&lt;font style=&quot;font-size: 10px&quot;&gt;ComentÃ¡rios&lt;/font&gt;" style="text;html=1;align=center;verticalAlign=middle;resizable=0;points=[];autosize=1;strokeColor=none;" vertex="1" parent="1">
          <mxGeometry x="532" y="842.36" width="70" height="20" as="geometry" />
        </mxCell>
        <mxCell id="Juyp6doiT1WNdnk2VAP0-250" value="" style="endArrow=none;html=1;exitX=0.028;exitY=1.009;exitDx=0;exitDy=0;exitPerimeter=0;" edge="1" parent="1" source="Juyp6doiT1WNdnk2VAP0-5">
          <mxGeometry width="50" height="50" relative="1" as="geometry">
            <mxPoint x="478.64" y="850.3600000000001" as="sourcePoint" />
            <mxPoint x="479" y="920.7200000000001" as="targetPoint" />
          </mxGeometry>
        </mxCell>
        <mxCell id="Juyp6doiT1WNdnk2VAP0-251" value="" style="ellipse;whiteSpace=wrap;html=1;aspect=fixed;shadow=0;fillColor=#000000;" vertex="1" parent="1">
          <mxGeometry x="475" y="916.72" width="8" height="8" as="geometry" />
        </mxCell>
        <mxCell id="Juyp6doiT1WNdnk2VAP0-252" value="&lt;font style=&quot;font-size: 10px&quot;&gt;AvaliaÃ§Ã£o&lt;/font&gt;" style="text;html=1;align=center;verticalAlign=middle;resizable=0;points=[];autosize=1;strokeColor=none;" vertex="1" parent="1">
          <mxGeometry x="486" y="900.36" width="60" height="20" as="geometry" />
        </mxCell>
        <mxCell id="Juyp6doiT1WNdnk2VAP0-253" value="" style="endArrow=none;html=1;entryX=0;entryY=0.5;entryDx=0;entryDy=0;exitX=0.917;exitY=0.008;exitDx=0;exitDy=0;exitPerimeter=0;" edge="1" parent="1" source="Juyp6doiT1WNdnk2VAP0-4" target="Juyp6doiT1WNdnk2VAP0-256">
          <mxGeometry width="50" height="50" relative="1" as="geometry">
            <mxPoint x="622.24" y="570.3" as="sourcePoint" />
            <mxPoint x="622" y="650" as="targetPoint" />
            <Array as="points">
              <mxPoint x="590" y="567" />
            </Array>
          </mxGeometry>
        </mxCell>
        <mxCell id="Juyp6doiT1WNdnk2VAP0-254" value="" style="endArrow=none;html=1;entryX=1.002;entryY=0.302;entryDx=0;entryDy=0;entryPerimeter=0;" edge="1" parent="1" target="Juyp6doiT1WNdnk2VAP0-4">
          <mxGeometry width="50" height="50" relative="1" as="geometry">
            <mxPoint x="630" y="588" as="sourcePoint" />
            <mxPoint x="639.04" y="649" as="targetPoint" />
          </mxGeometry>
        </mxCell>
        <mxCell id="Juyp6doiT1WNdnk2VAP0-255" value="&lt;font style=&quot;font-size: 10px&quot;&gt;CNPJ&lt;/font&gt;" style="text;html=1;align=center;verticalAlign=middle;resizable=0;points=[];autosize=1;strokeColor=none;" vertex="1" parent="1">
          <mxGeometry x="621" y="555" width="40" height="20" as="geometry" />
        </mxCell>
        <mxCell id="Juyp6doiT1WNdnk2VAP0-256" value="" style="ellipse;whiteSpace=wrap;html=1;aspect=fixed;shadow=0;fillColor=#000000;" vertex="1" parent="1">
          <mxGeometry x="618" y="563" width="8" height="8" as="geometry" />
        </mxCell>
        <mxCell id="Juyp6doiT1WNdnk2VAP0-257" value="" style="ellipse;whiteSpace=wrap;html=1;aspect=fixed;shadow=0;" vertex="1" parent="1">
          <mxGeometry x="628" y="584" width="8" height="8" as="geometry" />
        </mxCell>
        <mxCell id="Juyp6doiT1WNdnk2VAP0-258" value="&lt;font style=&quot;font-size: 10px&quot;&gt;Nome da empresa&lt;/font&gt;" style="text;html=1;align=center;verticalAlign=middle;resizable=0;points=[];autosize=1;strokeColor=none;" vertex="1" parent="1">
          <mxGeometry x="630" y="576" width="100" height="20" as="geometry" />
        </mxCell>
        <mxCell id="Juyp6doiT1WNdnk2VAP0-259" value="" style="endArrow=none;html=1;exitX=-0.021;exitY=0.398;exitDx=0;exitDy=0;exitPerimeter=0;" edge="1" parent="1" source="Juyp6doiT1WNdnk2VAP0-260">
          <mxGeometry width="50" height="50" relative="1" as="geometry">
            <mxPoint x="621" y="597" as="sourcePoint" />
            <mxPoint x="600" y="598" as="targetPoint" />
          </mxGeometry>
        </mxCell>
        <mxCell id="Juyp6doiT1WNdnk2VAP0-260" value="" style="ellipse;whiteSpace=wrap;html=1;aspect=fixed;shadow=0;" vertex="1" parent="1">
          <mxGeometry x="632" y="595" width="8" height="8" as="geometry" />
        </mxCell>
        <mxCell id="Juyp6doiT1WNdnk2VAP0-261" value="&lt;font style=&quot;font-size: 10px&quot;&gt;E-mail&lt;/font&gt;" style="text;html=1;align=center;verticalAlign=middle;resizable=0;points=[];autosize=1;strokeColor=none;" vertex="1" parent="1">
          <mxGeometry x="637" y="587" width="40" height="20" as="geometry" />
        </mxCell>
        <mxCell id="Juyp6doiT1WNdnk2VAP0-262" value="" style="endArrow=none;html=1;entryX=0.995;entryY=0.668;entryDx=0;entryDy=0;entryPerimeter=0;" edge="1" parent="1" target="Juyp6doiT1WNdnk2VAP0-4">
          <mxGeometry width="50" height="50" relative="1" as="geometry">
            <mxPoint x="637" y="610" as="sourcePoint" />
            <mxPoint x="601.8000000000001" y="610.1200000000001" as="targetPoint" />
          </mxGeometry>
        </mxCell>
        <mxCell id="Juyp6doiT1WNdnk2VAP0-263" value="" style="ellipse;whiteSpace=wrap;html=1;aspect=fixed;shadow=0;" vertex="1" parent="1">
          <mxGeometry x="637" y="606" width="8" height="8" as="geometry" />
        </mxCell>
        <mxCell id="Juyp6doiT1WNdnk2VAP0-264" value="&lt;font style=&quot;font-size: 10px&quot;&gt;Telefone&lt;/font&gt;" style="text;html=1;align=center;verticalAlign=middle;resizable=0;points=[];autosize=1;strokeColor=none;" vertex="1" parent="1">
          <mxGeometry x="640" y="599" width="50" height="20" as="geometry" />
        </mxCell>
        <mxCell id="Juyp6doiT1WNdnk2VAP0-266" value="" style="ellipse;whiteSpace=wrap;html=1;aspect=fixed;shadow=0;" vertex="1" parent="1">
          <mxGeometry x="642" y="616" width="8" height="8" as="geometry" />
        </mxCell>
        <mxCell id="Juyp6doiT1WNdnk2VAP0-267" value="&lt;font style=&quot;font-size: 10px&quot;&gt;Senha&lt;/font&gt;" style="text;html=1;align=center;verticalAlign=middle;resizable=0;points=[];autosize=1;strokeColor=none;" vertex="1" parent="1">
          <mxGeometry x="646" y="609" width="40" height="20" as="geometry" />
        </mxCell>
        <mxCell id="Juyp6doiT1WNdnk2VAP0-268" value="" style="endArrow=none;html=1;exitX=0.015;exitY=1.046;exitDx=0;exitDy=0;exitPerimeter=0;" edge="1" parent="1">
          <mxGeometry width="50" height="50" relative="1" as="geometry">
            <mxPoint x="646.6" y="628.9200000000001" as="sourcePoint" />
            <mxPoint x="600" y="629" as="targetPoint" />
            <Array as="points" />
          </mxGeometry>
        </mxCell>
        <mxCell id="Juyp6doiT1WNdnk2VAP0-269" value="" style="ellipse;whiteSpace=wrap;html=1;aspect=fixed;shadow=0;" vertex="1" parent="1">
          <mxGeometry x="647" y="625" width="8" height="8" as="geometry" />
        </mxCell>
        <mxCell id="Juyp6doiT1WNdnk2VAP0-270" value="&lt;font style=&quot;font-size: 10px&quot;&gt;EndereÃ§o&lt;/font&gt;" style="text;html=1;align=center;verticalAlign=middle;resizable=0;points=[];autosize=1;strokeColor=none;" vertex="1" parent="1">
          <mxGeometry x="647" y="619" width="60" height="20" as="geometry" />
        </mxCell>
        <mxCell id="Juyp6doiT1WNdnk2VAP0-271" value="" style="endArrow=none;html=1;entryX=0.999;entryY=0.117;entryDx=0;entryDy=0;entryPerimeter=0;" edge="1" parent="1" source="Juyp6doiT1WNdnk2VAP0-272" target="Juyp6doiT1WNdnk2VAP0-4">
          <mxGeometry width="50" height="50" relative="1" as="geometry">
            <mxPoint x="630" y="599" as="sourcePoint" />
            <mxPoint x="610" y="577" as="targetPoint" />
          </mxGeometry>
        </mxCell>
        <mxCell id="Juyp6doiT1WNdnk2VAP0-272" value="" style="ellipse;whiteSpace=wrap;html=1;aspect=fixed;shadow=0;" vertex="1" parent="1">
          <mxGeometry x="625" y="573" width="8" height="8" as="geometry" />
        </mxCell>
        <mxCell id="Juyp6doiT1WNdnk2VAP0-273" value="&lt;font style=&quot;font-size: 10px&quot;&gt;Dados bancÃ¡rios&lt;/font&gt;" style="text;html=1;align=center;verticalAlign=middle;resizable=0;points=[];autosize=1;strokeColor=none;" vertex="1" parent="1">
          <mxGeometry x="628" y="567" width="90" height="20" as="geometry" />
        </mxCell>
        <mxCell id="Juyp6doiT1WNdnk2VAP0-274" value="" style="endArrow=none;html=1;entryX=0.995;entryY=0.668;entryDx=0;entryDy=0;entryPerimeter=0;exitX=0;exitY=0.5;exitDx=0;exitDy=0;" edge="1" parent="1" source="Juyp6doiT1WNdnk2VAP0-266">
          <mxGeometry width="50" height="50" relative="1" as="geometry">
            <mxPoint x="637" y="620" as="sourcePoint" />
            <mxPoint x="599.4" y="620.08" as="targetPoint" />
          </mxGeometry>
        </mxCell>
      </root>
    </mxGraphModel>
  </diagram>
</mxfile>
